<svg xmlns="http://www.w3.org/2000/svg" version="1.1" xmlns:xlink="http://www.w3.org/1999/xlink" xmlns:svgjs="http://svgjs.com/svgjs" width="100%" height="100%" viewBox="0 0 1000 600"><rect width="1000" height="600" x="0" y="0" fill="#ffffff"/><g><rect width="333.3333333333333" height="333.3333333333333" rx="13.333333333333334" ry="13.333333333333334" y="141.29902037301412" fill="#06050b" transform="matrix(1.0497427540797344,0,0,1.0497427540797344,0,-23.28474503990192)" x="119.07682037353516"/><path d="M314.9422080038589 382.965695409112L256.5447711544207 382.965695409112L256.5447711544207 232.9656929637932L272.6986175716089 232.9656929637932L272.6986175716089 369.1195413372364L314.9422080038589 369.1195413372364L314.9422080038589 382.965695409112Z " fill="#ffffff" transform="matrix(1.0497427540797344,0,0,1.0497427540797344,0,-23.28474503990192)"/><path d="M610.7434835698859 263.848042164605L610.7434835698859 263.848042164605L610.7434835698859 352.0833310573931Q610.7434835698859 366.85048704569994 601.3684841250272 374.90808460778436Q591.9934846801684 382.9656821698689 573.3660348028021 382.9656821698689Q554.7079476723479 382.9656821698689 545.241036468226 374.90808460778436Q535.7434880110161 366.85048704569994 535.7434880110161 352.0833310573931L535.7434880110161 352.0833310573931L535.7434880110161 263.848042164605Q535.7434880110161 249.08088617629807 545.1184874558749 241.0232886142136Q554.4934869007336 232.96569105212913 573.1209367780999 232.96569105212913Q591.7790239085541 232.96569105212913 601.2459351126761 241.0232886142136Q610.7434835698859 249.08088617629807 610.7434835698859 263.848042164605ZM595.302308013648 352.0833310573931L595.302308013648 352.0833310573931L595.302308013648 263.848042164605Q595.302308013648 246.20098438604734 573.243485790451 246.20098438604734Q551.184663567254 246.20098438604734 551.184663567254 263.848042164605L551.184663567254 263.848042164605L551.184663567254 352.0833310573931Q551.184663567254 369.7303888359507 573.243485790451 369.7303888359507Q595.302308013648 369.7303888359507 595.302308013648 352.0833310573931ZM705.5964191296332 320.09803883375736L680.9027931408876 320.09803883375736L680.9027931408876 306.8627454998391L721.037594685871 306.8627454998391L721.037594685871 379.6568588363893L714.419948018912 379.6568588363893L708.6907816914983 365.5330851629257Q704.0645564752444 373.46813371265904 696.5584294687399 378.21690794126397Q689.0523024622354 382.9656821698689 680.2287735729566 382.9656821698689L680.2287735729566 382.9656821698689Q648.2434813493209 382.9656821698689 648.2434813493209 352.0833310573931L648.2434813493209 352.0833310573931L648.2434813493209 263.848042164605Q648.2434813493209 249.08088617629807 657.2814710102141 241.0232886142136Q666.3194606711073 232.96569105212913 684.4260772459816 232.96569105212913Q702.502056567768 232.96569105212913 711.7851442533635 241.0232886142136Q721.037594685871 249.08088617629807 721.037594685871 263.848042164605L721.037594685871 263.848042164605L721.037594685871 275.9803943873633L705.5964191296332 275.9803943873633L705.5964191296332 263.848042164605Q705.5964191296332 246.20098438604734 684.640538017596 246.20098438604734Q663.6846569055588 246.20098438604734 663.6846569055588 263.848042164605L663.6846569055588 263.848042164605L663.6846569055588 352.0833310573931Q663.6846569055588 360.47793840344303 667.2079410106528 365.10416361969686Q670.7312251157467 369.7303888359507 680.1062245606055 369.7303888359507Q689.4812240054642 369.7303888359507 697.5388215675487 362.2242618294461Q705.5964191296332 354.71813482294164 705.5964191296332 347.6715666127537L705.5964191296332 347.6715666127537L705.5964191296332 320.09803883375736ZM833.5375880241759 263.848042164605L833.5375880241759 263.848042164605L833.5375880241759 352.0833310573931Q833.5375880241759 366.85048704569994 824.1625885793171 374.90808460778436Q814.7875891344584 382.9656821698689 796.160139257092 382.9656821698689Q777.5020521266379 382.9656821698689 768.0351409225158 374.90808460778436Q758.537592465306 366.85048704569994 758.537592465306 352.0833310573931L758.537592465306 352.0833310573931L758.537592465306 263.848042164605Q758.537592465306 249.08088617629807 767.9125919101648 241.0232886142136Q777.2875913550234 232.96569105212913 795.9150412323899 232.96569105212913Q814.573128362844 232.96569105212913 824.040039566966 241.0232886142136Q833.5375880241759 249.08088617629807 833.5375880241759 263.848042164605ZM818.096412467938 352.0833310573931L818.096412467938 352.0833310573931L818.096412467938 263.848042164605Q818.096412467938 246.20098438604734 796.0375902447408 246.20098438604734Q773.9787680215439 246.20098438604734 773.9787680215439 263.848042164605L773.9787680215439 263.848042164605L773.9787680215439 352.0833310573931Q773.9787680215439 369.7303888359507 796.0375902447408 369.7303888359507Q818.096412467938 369.7303888359507 818.096412467938 352.0833310573931Z " fill="#06050b" transform="matrix(1.0497427540797344,0,0,1.0497427540797344,0,-23.28474503990192)"/></g></svg>