<svg xmlns="http://www.w3.org/2000/svg" width="18.556" height="18.658" viewBox="0 0 18.556 18.658">
  <g id="_674aaa8a5939fb3fb007e77121fb1581" data-name="674aaa8a5939fb3fb007e77121fb1581" transform="translate(-9.995 -7.3)">
    <path id="Path_2" data-name="Path 2" d="M688.437,572.377a9.4,9.4,0,0,0-4.393-6.917.933.933,0,1,0-.977,1.59,7.516,7.516,0,0,1,3.516,5.531.934.934,0,0,0,.926.831.959.959,0,0,0,.1-.006A.932.932,0,0,0,688.437,572.377Z" transform="translate(-659.891 -547.457)"/>
    <path id="Path_3" data-name="Path 3" d="M24.87,12.9a5.6,5.6,0,1,0-10.882,1.846.932.932,0,1,0,1.761-.613,3.733,3.733,0,1,1,3.524,2.5A9.312,9.312,0,0,0,10,24.922a.934.934,0,0,0,.826,1.03.96.96,0,0,0,.1.006.932.932,0,0,0,.926-.831,7.447,7.447,0,0,1,7.417-6.633A5.6,5.6,0,0,0,24.87,12.9Z" transform="translate(0)"/>
  </g>
</svg>
