<svg xmlns="http://www.w3.org/2000/svg" width="20.968" height="21.347" viewBox="0 0 20.968 21.347">
  <g id="bdcb0c3f6d67999723518ef3c2ad5494" transform="translate(-10 -1.2)">
    <path id="Path_4" data-name="Path 4" d="M30.829,6.1a.808.808,0,0,0-.67-.355h0l-15.946.036L12.884,1.756a.81.81,0,0,0-.77-.556H10.809a.81.81,0,1,0,0,1.62h.719l1.32,4.007.013.036L14.885,13,12.369,17.69a.81.81,0,0,0,.715,1.192H27.324a.809.809,0,1,0,0-1.618H14.435l1.81-3.374h11.3a.806.806,0,0,0,.751-.509l2.61-6.524A.815.815,0,0,0,30.829,6.1ZM27,12.268H16.344l-1.6-4.87,14.218-.032Z"/>
    <path id="Path_5" data-name="Path 5" d="M198.48,897.9a1.081,1.081,0,1,0,1.08,1.081A1.08,1.08,0,0,0,198.48,897.9Z" transform="translate(-183.39 -877.514)"/>
    <path id="Path_6" data-name="Path 6" d="M659.081,897.9a1.081,1.081,0,1,0,1.081,1.081A1.08,1.08,0,0,0,659.081,897.9Z" transform="translate(-634.136 -877.514)"/>
  </g>
</svg>
